<mxfile host="app.diagrams.net" modified="2021-08-20T15:31:04.958Z" agent="5.0 (X11)" etag="WiR7gYPGA3hJOWpewn8J" version="14.9.8" type="github" pages="3">
  <diagram id="prtHgNgQTEPvFCAcTncT" name="Navigation">
    <mxGraphModel dx="3437" dy="1967" grid="1" gridSize="10" guides="1" tooltips="1" connect="1" arrows="1" fold="1" page="1" pageScale="1" pageWidth="1600" pageHeight="900" math="0" shadow="0">
      <root>
        <mxCell id="0" />
        <mxCell id="1" parent="0" />
        <mxCell id="NTErxbjZfQiD4P2O9LFr-4" style="edgeStyle=none;rounded=0;orthogonalLoop=1;jettySize=auto;html=1;entryX=0;entryY=0.5;entryDx=0;entryDy=0;strokeWidth=4;" edge="1" parent="1" source="BVTGFO8PCjX0Q4Ga4c29-6" target="NTErxbjZfQiD4P2O9LFr-1">
          <mxGeometry relative="1" as="geometry" />
        </mxCell>
        <mxCell id="BVTGFO8PCjX0Q4Ga4c29-6" value="&lt;div&gt;&lt;font style=&quot;font-size: 24px&quot;&gt;Planning &lt;br&gt;&lt;/font&gt;&lt;/div&gt;&lt;div&gt;&lt;font style=&quot;font-size: 24px&quot;&gt;and &lt;br&gt;&lt;/font&gt;&lt;/div&gt;&lt;div&gt;&lt;font style=&quot;font-size: 24px&quot;&gt;Control&lt;/font&gt;&lt;/div&gt;" style="whiteSpace=wrap;html=1;fillColor=#d5e8d4;strokeColor=#82b366;" parent="1" vertex="1">
          <mxGeometry x="1020" y="130" width="200" height="670" as="geometry" />
        </mxCell>
        <mxCell id="BVTGFO8PCjX0Q4Ga4c29-8" value="" style="edgeStyle=orthogonalEdgeStyle;orthogonalLoop=1;jettySize=auto;html=1;strokeWidth=4;" parent="1" source="BVTGFO8PCjX0Q4Ga4c29-7" target="BVTGFO8PCjX0Q4Ga4c29-6" edge="1">
          <mxGeometry relative="1" as="geometry" />
        </mxCell>
        <UserObject label="&lt;div&gt;&lt;font face=&quot;Verdana&quot;&gt;&lt;font style=&quot;font-size: 24px&quot;&gt;Localization&lt;font style=&quot;font-size: 24px&quot;&gt; &lt;br&gt;&lt;/font&gt;&lt;/font&gt;&lt;/font&gt;&lt;/div&gt;&lt;div&gt;&lt;font face=&quot;Verdana&quot;&gt;&lt;font style=&quot;font-size: 24px&quot;&gt;&lt;font style=&quot;font-size: 24px&quot;&gt;and &lt;br&gt;&lt;/font&gt;&lt;/font&gt;&lt;/font&gt;&lt;/div&gt;&lt;div&gt;&lt;font face=&quot;Verdana&quot;&gt;&lt;font style=&quot;font-size: 24px&quot;&gt;&lt;font style=&quot;font-size: 24px&quot;&gt;Mapping&lt;/font&gt;&lt;/font&gt;&lt;/font&gt;&lt;/div&gt;" link="data:page/id,ldTAqI2T-_zdcecsA4YL" id="BVTGFO8PCjX0Q4Ga4c29-7">
          <mxCell style="whiteSpace=wrap;html=1;fillColor=#d5e8d4;strokeColor=#82b366;" parent="1" vertex="1">
            <mxGeometry x="720" y="130" width="200" height="670" as="geometry" />
          </mxCell>
        </UserObject>
        <mxCell id="NTErxbjZfQiD4P2O9LFr-3" style="edgeStyle=none;rounded=0;orthogonalLoop=1;jettySize=auto;html=1;strokeWidth=4;entryX=-0.002;entryY=0.865;entryDx=0;entryDy=0;entryPerimeter=0;" edge="1" parent="1" source="BVTGFO8PCjX0Q4Ga4c29-9" target="BVTGFO8PCjX0Q4Ga4c29-7">
          <mxGeometry relative="1" as="geometry" />
        </mxCell>
        <mxCell id="BVTGFO8PCjX0Q4Ga4c29-9" value="&lt;font style=&quot;font-size: 24px&quot;&gt;Preprocessing&lt;/font&gt;" style="whiteSpace=wrap;html=1;fillColor=#d5e8d4;strokeColor=#82b366;" parent="1" vertex="1">
          <mxGeometry x="350" y="620" width="260" height="180" as="geometry" />
        </mxCell>
        <mxCell id="BVTGFO8PCjX0Q4Ga4c29-12" value="" style="orthogonalLoop=1;jettySize=auto;html=1;entryX=0;entryY=0.5;entryDx=0;entryDy=0;strokeWidth=4;" parent="1" target="BVTGFO8PCjX0Q4Ga4c29-9" edge="1">
          <mxGeometry relative="1" as="geometry">
            <mxPoint x="230" y="710" as="sourcePoint" />
          </mxGeometry>
        </mxCell>
        <mxCell id="BVTGFO8PCjX0Q4Ga4c29-11" value="&lt;font style=&quot;font-size: 24px&quot;&gt;Sensors&lt;/font&gt;" style="shape=parallelogram;perimeter=parallelogramPerimeter;whiteSpace=wrap;html=1;fixedSize=1;fillColor=#fff2cc;strokeColor=#d6b656;" parent="1" vertex="1">
          <mxGeometry x="60" y="130" width="200" height="670" as="geometry" />
        </mxCell>
        <mxCell id="BVTGFO8PCjX0Q4Ga4c29-17" value="" style="endArrow=classic;html=1;entryX=0;entryY=0.277;entryDx=0;entryDy=0;entryPerimeter=0;strokeWidth=4;" parent="1" target="BVTGFO8PCjX0Q4Ga4c29-7" edge="1">
          <mxGeometry width="50" height="50" relative="1" as="geometry">
            <mxPoint x="255" y="316" as="sourcePoint" />
            <mxPoint x="1070" y="530" as="targetPoint" />
          </mxGeometry>
        </mxCell>
        <mxCell id="NTErxbjZfQiD4P2O9LFr-1" value="&lt;font style=&quot;font-size: 24px&quot;&gt;Actuators&lt;/font&gt;" style="shape=parallelogram;perimeter=parallelogramPerimeter;whiteSpace=wrap;html=1;fixedSize=1;fillColor=#fff2cc;strokeColor=#d6b656;" vertex="1" parent="1">
          <mxGeometry x="1330" y="130" width="200" height="670" as="geometry" />
        </mxCell>
      </root>
    </mxGraphModel>
  </diagram>
  <diagram id="ldTAqI2T-_zdcecsA4YL" name="Localization and Mapping">
    <mxGraphModel dx="2946" dy="1686" grid="1" gridSize="10" guides="1" tooltips="1" connect="0" arrows="1" fold="1" page="1" pageScale="1" pageWidth="1600" pageHeight="900" math="0" shadow="0">
      <root>
        <mxCell id="GfsLmEvaizO0xj4gn3vc-0" />
        <mxCell id="GfsLmEvaizO0xj4gn3vc-1" parent="GfsLmEvaizO0xj4gn3vc-0" />
        <UserObject label="Mapping and Localization" link="data:page/id,prtHgNgQTEPvFCAcTncT" id="GfsLmEvaizO0xj4gn3vc-2">
          <mxCell style="swimlane;fillColor=#d5e8d4;strokeColor=#82b366;fontSize=24;strokeWidth=5;" parent="GfsLmEvaizO0xj4gn3vc-1" vertex="1">
            <mxGeometry x="270" y="105" width="1060" height="690" as="geometry">
              <mxRectangle x="220" y="500" width="180" height="23" as="alternateBounds" />
            </mxGeometry>
          </mxCell>
        </UserObject>
        <mxCell id="GfsLmEvaizO0xj4gn3vc-3" value="" style="endArrow=classic;entryX=0;entryY=0.5;entryDx=0;entryDy=0;verticalAlign=top;horizontal=1;strokeWidth=4;" parent="GfsLmEvaizO0xj4gn3vc-2" target="GfsLmEvaizO0xj4gn3vc-5" edge="1">
          <mxGeometry width="50" height="50" relative="1" as="geometry">
            <mxPoint y="505" as="sourcePoint" />
            <mxPoint x="490" y="-180" as="targetPoint" />
          </mxGeometry>
        </mxCell>
        <mxCell id="GfsLmEvaizO0xj4gn3vc-4" value="&lt;font style=&quot;font-size: 24px&quot;&gt;Localization&lt;/font&gt;" style="whiteSpace=wrap;html=1;fillColor=#ffe6cc;strokeColor=#d79b00;" parent="GfsLmEvaizO0xj4gn3vc-2" vertex="1">
          <mxGeometry x="90" y="60" width="310" height="230" as="geometry" />
        </mxCell>
        <UserObject label="&lt;font style=&quot;font-size: 24px&quot;&gt;Mapping&lt;/font&gt;" link="data:page/id,a-RNjdHXBQ174pXRn1Qw" id="GfsLmEvaizO0xj4gn3vc-5">
          <mxCell style="whiteSpace=wrap;html=1;fillColor=#ffe6cc;strokeColor=#d79b00;" parent="GfsLmEvaizO0xj4gn3vc-2" vertex="1">
            <mxGeometry x="90" y="390" width="310" height="230" as="geometry" />
          </mxCell>
        </UserObject>
        <mxCell id="GfsLmEvaizO0xj4gn3vc-6" value="" style="endArrow=classic;html=1;entryX=0;entryY=0.5;entryDx=0;entryDy=0;strokeWidth=4;" parent="GfsLmEvaizO0xj4gn3vc-2" target="GfsLmEvaizO0xj4gn3vc-4" edge="1">
          <mxGeometry width="50" height="50" relative="1" as="geometry">
            <mxPoint y="175" as="sourcePoint" />
            <mxPoint x="50" y="75" as="targetPoint" />
          </mxGeometry>
        </mxCell>
        <mxCell id="GfsLmEvaizO0xj4gn3vc-7" value="" style="endArrow=classic;html=1;entryX=0.5;entryY=0;entryDx=0;entryDy=0;exitX=0.5;exitY=1;exitDx=0;exitDy=0;strokeWidth=4;" parent="GfsLmEvaizO0xj4gn3vc-2" source="GfsLmEvaizO0xj4gn3vc-4" target="GfsLmEvaizO0xj4gn3vc-5" edge="1">
          <mxGeometry width="50" height="50" relative="1" as="geometry">
            <mxPoint x="630" y="170" as="sourcePoint" />
            <mxPoint x="680" y="120" as="targetPoint" />
            <Array as="points">
              <mxPoint x="245" y="330" />
            </Array>
          </mxGeometry>
        </mxCell>
        <mxCell id="NlW17dGzJixS3HYvsq4S-0" style="edgeStyle=orthogonalEdgeStyle;rounded=0;orthogonalLoop=1;jettySize=auto;html=0;verticalAlign=top;strokeWidth=4;entryX=1;entryY=0.25;entryDx=0;entryDy=0;" parent="GfsLmEvaizO0xj4gn3vc-2" edge="1" target="GfsLmEvaizO0xj4gn3vc-2">
          <mxGeometry relative="1" as="geometry">
            <mxPoint x="1070" y="175" as="targetPoint" />
            <mxPoint x="420" y="173" as="sourcePoint" />
            <Array as="points">
              <mxPoint x="400" y="173" />
              <mxPoint x="420" y="173" />
            </Array>
          </mxGeometry>
        </mxCell>
        <mxCell id="NlW17dGzJixS3HYvsq4S-1" style="edgeStyle=orthogonalEdgeStyle;rounded=0;orthogonalLoop=1;jettySize=auto;html=0;verticalAlign=top;exitX=1;exitY=0.5;exitDx=0;exitDy=0;strokeWidth=4;" parent="GfsLmEvaizO0xj4gn3vc-2" source="GfsLmEvaizO0xj4gn3vc-5" edge="1">
          <mxGeometry relative="1" as="geometry">
            <mxPoint x="1060" y="505" as="targetPoint" />
            <mxPoint x="290" y="610" as="sourcePoint" />
          </mxGeometry>
        </mxCell>
      </root>
    </mxGraphModel>
  </diagram>
  <diagram id="a-RNjdHXBQ174pXRn1Qw" name="Mapping">
    <mxGraphModel dx="1837" dy="1967" grid="1" gridSize="10" guides="1" tooltips="1" connect="1" arrows="1" fold="1" page="1" pageScale="1" pageWidth="1600" pageHeight="900" math="0" shadow="0">
      <root>
        <mxCell id="Ka8ez7n9a7QdZ7t_4yAI-0" />
        <mxCell id="Ka8ez7n9a7QdZ7t_4yAI-1" parent="Ka8ez7n9a7QdZ7t_4yAI-0" />
        <UserObject label="Mapping" link="data:page/id,ldTAqI2T-_zdcecsA4YL" id="6MaHLs1leE9JKEzJSeug-0">
          <mxCell style="swimlane;fillColor=#ffe6cc;strokeColor=#d79b00;fontSize=24;strokeWidth=5;" parent="Ka8ez7n9a7QdZ7t_4yAI-1" vertex="1">
            <mxGeometry x="1750" y="130" width="1300" height="640" as="geometry">
              <mxRectangle x="1750" y="200" width="180" height="23" as="alternateBounds" />
            </mxGeometry>
          </mxCell>
        </UserObject>
        <mxCell id="6MaHLs1leE9JKEzJSeug-1" value="" style="edgeStyle=orthogonalEdgeStyle;rounded=0;orthogonalLoop=1;jettySize=auto;html=0;verticalAlign=top;" parent="6MaHLs1leE9JKEzJSeug-0" source="6MaHLs1leE9JKEzJSeug-2" target="6MaHLs1leE9JKEzJSeug-4" edge="1">
          <mxGeometry relative="1" as="geometry" />
        </mxCell>
        <mxCell id="6MaHLs1leE9JKEzJSeug-2" value="&lt;font style=&quot;font-size: 24px&quot;&gt;Elevation map&lt;/font&gt;" style="whiteSpace=wrap;html=1;fillColor=#dae8fc;strokeColor=#6c8ebf;" parent="6MaHLs1leE9JKEzJSeug-0" vertex="1">
          <mxGeometry x="90" y="55" width="220" height="155" as="geometry" />
        </mxCell>
        <mxCell id="6MaHLs1leE9JKEzJSeug-3" style="edgeStyle=orthogonalEdgeStyle;rounded=0;orthogonalLoop=1;jettySize=auto;html=0;verticalAlign=top;" parent="6MaHLs1leE9JKEzJSeug-0" source="6MaHLs1leE9JKEzJSeug-4" edge="1">
          <mxGeometry relative="1" as="geometry">
            <mxPoint x="949" y="133" as="targetPoint" />
          </mxGeometry>
        </mxCell>
        <mxCell id="6MaHLs1leE9JKEzJSeug-4" value="&lt;font style=&quot;font-size: 24px&quot;&gt;Traversability map&lt;/font&gt;" style="whiteSpace=wrap;html=1;fillColor=#dae8fc;strokeColor=#6c8ebf;" parent="6MaHLs1leE9JKEzJSeug-0" vertex="1">
          <mxGeometry x="480" y="55" width="220" height="155" as="geometry" />
        </mxCell>
        <mxCell id="6MaHLs1leE9JKEzJSeug-5" value="" style="endArrow=classic;html=1;entryX=0;entryY=0.5;entryDx=0;entryDy=0;" parent="6MaHLs1leE9JKEzJSeug-0" target="6MaHLs1leE9JKEzJSeug-2" edge="1">
          <mxGeometry width="50" height="50" relative="1" as="geometry">
            <mxPoint y="133" as="sourcePoint" />
            <mxPoint x="50" y="75" as="targetPoint" />
          </mxGeometry>
        </mxCell>
        <mxCell id="6MaHLs1leE9JKEzJSeug-6" value="&lt;font style=&quot;font-size: 24px&quot;&gt;local costmap&lt;/font&gt;" style="whiteSpace=wrap;html=1;fillColor=#dae8fc;strokeColor=#6c8ebf;" parent="6MaHLs1leE9JKEzJSeug-0" vertex="1">
          <mxGeometry x="950" y="55" width="220" height="265" as="geometry" />
        </mxCell>
        <mxCell id="6MaHLs1leE9JKEzJSeug-7" value="" style="endArrow=classic;html=1;verticalAlign=top;exitX=0.5;exitY=1;exitDx=0;exitDy=0;entryX=0;entryY=0.883;entryDx=0;entryDy=0;entryPerimeter=0;edgeStyle=orthogonalEdgeStyle;" parent="6MaHLs1leE9JKEzJSeug-0" source="6MaHLs1leE9JKEzJSeug-2" target="6MaHLs1leE9JKEzJSeug-6" edge="1">
          <mxGeometry width="50" height="50" relative="1" as="geometry">
            <mxPoint x="-10" y="-130" as="sourcePoint" />
            <mxPoint x="40" y="-180" as="targetPoint" />
          </mxGeometry>
        </mxCell>
        <mxCell id="6MaHLs1leE9JKEzJSeug-8" value="&lt;font style=&quot;font-size: 24px&quot;&gt;Global Feature Map Fusion&lt;/font&gt;" style="whiteSpace=wrap;html=1;fillColor=#dae8fc;strokeColor=#6c8ebf;" parent="6MaHLs1leE9JKEzJSeug-0" vertex="1">
          <mxGeometry x="90" y="440" width="220" height="155" as="geometry" />
        </mxCell>
        <mxCell id="rGWu54lfS5nSmR7nEJ0M-0" value="" style="endArrow=classic;html=1;verticalAlign=top;exitX=1;exitY=0.5;exitDx=0;exitDy=0;" parent="6MaHLs1leE9JKEzJSeug-0" source="6MaHLs1leE9JKEzJSeug-6" edge="1">
          <mxGeometry width="50" height="50" relative="1" as="geometry">
            <mxPoint x="330" y="230" as="sourcePoint" />
            <mxPoint x="1300" y="188" as="targetPoint" />
          </mxGeometry>
        </mxCell>
        <mxCell id="M9dY9LN8qdS82Russqsr-0" value="" style="endArrow=classic;html=1;verticalAlign=top;" parent="6MaHLs1leE9JKEzJSeug-0" target="6MaHLs1leE9JKEzJSeug-8" edge="1">
          <mxGeometry width="50" height="50" relative="1" as="geometry">
            <mxPoint y="518" as="sourcePoint" />
            <mxPoint x="20" y="-70" as="targetPoint" />
          </mxGeometry>
        </mxCell>
        <mxCell id="S7aDmX5suXAZniosJqIW-0" value="" style="endArrow=classic;html=1;verticalAlign=top;exitX=1;exitY=0.5;exitDx=0;exitDy=0;" edge="1" parent="Ka8ez7n9a7QdZ7t_4yAI-1" source="6MaHLs1leE9JKEzJSeug-8">
          <mxGeometry width="50" height="50" relative="1" as="geometry">
            <mxPoint x="2930" y="327.5" as="sourcePoint" />
            <mxPoint x="3050" y="648" as="targetPoint" />
          </mxGeometry>
        </mxCell>
      </root>
    </mxGraphModel>
  </diagram>
</mxfile>
